PathFileType	4	(X/Y/Z)	C:/Users/opensim2020/Desktop/walking_exp_matlab/subject01_walking04_static.trc	
DataRate	CameraRate	NumFrames	NumMarkers	Units	OrigDataRate	OrigDataStartFrame	OrigNumFrames	
100.00	100.00	9	43	mm	100.00	281	321	
Frame#	Time	LFHD			RFHD			LBHD			RBHD			C7			T10			CLAV			STRN			RBAK			LSHO			LUPA			LELB			LFRM			LWRA			LWRB			LFIN			RSHO			RUPA			RELB			RFRM			RWRA			RWRB			RFIN			LASI			RASI			LPSI			RPSI			LTHI			LKNE			LTIB			LANK			LHEE			LTOE			RTHI			RKNE			RTIB			RANK			RHEE			RTOE			*39			*40			*41			*42			
		X1	Y1	Z1	X2	Y2	Z2	X3	Y3	Z3	X4	Y4	Z4	X5	Y5	Z5	X6	Y6	Z6	X7	Y7	Z7	X8	Y8	Z8	X9	Y9	Z9	X10	Y10	Z10	X11	Y11	Z11	X12	Y12	Z12	X13	Y13	Z13	X14	Y14	Z14	X15	Y15	Z15	X16	Y16	Z16	X17	Y17	Z17	X18	Y18	Z18	X19	Y19	Z19	X20	Y20	Z20	X21	Y21	Z21	X22	Y22	Z22	X23	Y23	Z23	X24	Y24	Z24	X25	Y25	Z25	X26	Y26	Z26	X27	Y27	Z27	X28	Y28	Z28	X29	Y29	Z29	X30	Y30	Z30	X31	Y31	Z31	X32	Y32	Z32	X33	Y33	Z33	X34	Y34	Z34	X35	Y35	Z35	X36	Y36	Z36	X37	Y37	Z37	X38	Y38	Z38	X39	Y39	Z39	X40	Y40	Z40	X41	Y41	Z41	X42	Y42	Z42	X43	Y43	Z43	

281	2.800	9.26506	-403.67026	1684.26123	5.13948	-289.61182	1693.99390	107.95693	-403.04361	1606.99646	107.36089	-282.71185	1615.43555	113.41230	-355.33612	1438.07361	140.30763	-345.32883	1144.29431	-32.55058	-344.84830	1374.60229	-80.51447	-344.45392	1219.98865	166.08746	-276.52609	1242.78455	19.59040	-509.33105	1397.87646	41.46126	-603.55255	1220.41284	52.49132	-625.40942	1072.10767	1.87338	-634.61133	963.57001	-68.44157	-587.86926	851.68915	-27.73364	-632.08258	845.28723	-79.29726	-620.91638	777.95996	36.82810	-198.04823	1400.80554	88.22403	-82.10543	1210.73108	73.18345	-56.28502	1087.11987	25.61773	-37.48329	970.14313	-42.48256	-89.99077	855.68213	-23.13095	-35.34545	857.00189	-57.69415	-53.25256	780.34460	-44.50117	-444.13275	937.70544	-33.44238	-226.96942	941.59955	146.99422	-402.85477	952.49127	152.74100	-260.15421	957.58203	6.31635	-516.88129	606.99982	27.06043	-507.33163	472.68912	77.48648	-530.17151	293.10428	84.95605	-488.34723	71.53262	124.16180	-435.87039	39.25701	-64.25125	-509.13373	33.35324	38.73845	-156.89828	613.29388	28.83568	-172.59721	456.41031	74.38695	-150.66432	287.57492	79.85640	-178.81544	78.48095	124.86280	-227.62776	35.28373	-61.41785	-164.17786	37.15262	26.64062	-313.56012	1722.45215	-3101.98877	1973.07214	1023.72040	-3140.70215	2012.51917	1021.81323			 
282	2.810	9.08127	-403.66986	1684.25000	4.99475	-289.57947	1693.97412	107.73949	-403.27972	1607.05505	107.29353	-282.68185	1615.47363	113.32107	-355.33221	1438.07764	140.24913	-345.29114	1144.29236	-32.60863	-344.80188	1374.62134	-80.58719	-344.42487	1219.98279	166.00134	-276.44861	1242.79724	19.51480	-509.30115	1397.87280	41.36073	-603.50183	1220.40955	52.42271	-625.32233	1072.08765	1.83833	-634.50122	963.51886	-68.49097	-587.70685	851.65015	-27.76924	-631.97498	845.22528	-79.32277	-620.76172	777.94830	36.72845	-198.01448	1400.80493	88.14135	-82.07770	1210.72375	73.06744	-56.30896	1087.10510	25.50717	-37.56447	970.13599	-42.59142	-90.09837	855.67023	-23.22598	-35.45750	856.97980	-57.76786	-53.41558	780.33063	-44.54276	-444.15448	937.69287	-33.50953	-226.94574	941.61005	146.91216	-402.80777	952.48029	152.67921	-260.11346	957.58704	6.30995	-516.85828	607.00897	27.05314	-507.31427	472.68167	77.49621	-530.15796	293.12073	84.93001	-488.35376	71.52335	124.15786	-435.86230	39.24488	-64.24851	-509.14075	33.31932	38.71992	-156.87967	613.30566	28.85633	-172.59723	456.40762	74.41608	-150.64563	287.57999	79.85017	-178.85875	78.45326	124.86100	-227.58562	35.36026	-61.41551	-164.17828	37.16868	26.27415	-313.59836	1722.31775	-3101.94873	1973.07104	1023.91125	-3140.71704	2012.40564	1021.89734			 
283	2.820	8.91806	-403.63809	1684.20886	4.85045	-289.59268	1693.99304	107.68644	-402.99966	1607.01953	107.09628	-282.68765	1615.47852	113.23512	-355.28796	1438.06152	140.19678	-345.24933	1144.31519	-32.68783	-344.76828	1374.62463	-80.69421	-344.39554	1220.01379	165.93559	-276.36707	1242.82373	19.43399	-509.28394	1397.88904	41.29558	-603.45105	1220.38696	52.37007	-625.23553	1072.07043	1.77582	-634.39154	963.48816	-68.51630	-587.52631	851.62189	-27.77554	-631.82129	845.19183	-79.30779	-620.60950	777.87805	36.66821	-197.95729	1400.79956	88.06290	-82.06345	1210.70972	72.98083	-56.36676	1087.07239	25.39301	-37.61842	970.11835	-42.63288	-90.24056	855.60797	-23.32518	-35.58821	856.94330	-57.86892	-53.50812	780.29950	-44.61033	-444.12796	937.69977	-33.61983	-226.94145	941.60382	146.86154	-402.78738	952.48444	152.61197	-260.10287	957.62421	6.30905	-516.85034	606.96533	27.05239	-507.32153	472.67294	77.50358	-530.15613	293.10114	84.97026	-488.35666	71.53831	124.16568	-435.85712	39.25487	-64.24447	-509.13840	33.35073	38.68906	-156.85454	613.28961	28.84767	-172.59647	456.43808	74.39784	-150.63652	287.59198	79.84956	-178.84605	78.45224	124.81983	-227.63306	35.25421	-61.45539	-164.18803	37.19499	26.09574	-313.58176	1722.31628	-3101.98633	1973.16528	1023.36914	-3140.76172	2012.45056	1022.06854			 
284	2.830	8.75135	-403.62012	1684.19751	4.63232	-289.59854	1693.99756	107.47884	-403.50009	1607.12744	107.04829	-282.63501	1615.58325	113.16724	-355.23795	1438.06726	140.12660	-345.19662	1144.28870	-32.74396	-344.74530	1374.62903	-80.77969	-344.37927	1220.01453	165.84624	-276.28836	1242.80371	19.33862	-509.25562	1397.89380	41.22011	-603.39105	1220.37415	52.25108	-625.12018	1072.05493	1.74283	-634.25293	963.46533	-68.57106	-587.38068	851.60052	-27.78479	-631.74603	845.18951	-79.30508	-620.45325	777.85895	36.56321	-197.93579	1400.80139	87.97340	-82.04420	1210.69043	72.87549	-56.36187	1087.06335	25.29819	-37.69365	970.06573	-42.72015	-90.34905	855.57452	-23.41379	-35.68155	856.86389	-57.93852	-53.60508	780.23840	-44.68070	-444.13092	937.66888	-33.69549	-226.93504	941.57568	146.79488	-402.75543	952.52448	152.53838	-260.02606	957.66119	6.28355	-516.86084	606.97748	27.03727	-507.30795	472.66116	77.47334	-530.14313	293.09238	84.95054	-488.36267	71.56736	124.14536	-435.86270	39.25161	-64.25653	-509.11093	33.35792	38.66972	-156.85033	613.32581	28.86707	-172.56534	456.41638	74.40687	-150.62700	287.58179	79.85233	-178.83127	78.44206	124.82665	-227.59193	35.27167	-61.44670	-164.17567	37.16142	25.90201	-313.63443	1722.32434	-3101.96851	1973.15112	1023.51093	-3140.81470	2012.53027	1021.92163			 
285	2.840	8.57484	-403.62836	1684.18042	4.51476	-289.61267	1693.97852	107.47668	-403.21988	1607.08606	106.84457	-282.65521	1615.61218	113.11326	-355.18488	1438.05859	140.04308	-345.16660	1144.29663	-32.82626	-344.69067	1374.63403	-80.83732	-344.36682	1219.99512	165.76866	-276.24051	1242.81348	19.28883	-509.22910	1397.90332	41.12928	-603.32837	1220.34778	52.14557	-625.00500	1072.05701	1.67739	-634.17090	963.43286	-68.59303	-587.22491	851.54224	-27.82048	-631.61554	845.12799	-79.32373	-620.35083	777.80182	36.47565	-197.91541	1400.81274	87.90793	-82.03265	1210.65906	72.78355	-56.39315	1087.00684	25.19652	-37.75760	970.01892	-42.82193	-90.48571	855.53943	-23.49593	-35.79947	856.84082	-57.98274	-53.79952	780.14038	-44.74606	-444.13318	937.62292	-33.75443	-226.89983	941.54956	146.70119	-402.74362	952.50262	152.60448	-260.09335	957.63800	6.24440	-516.87292	606.98712	27.01570	-507.30380	472.66479	77.45244	-530.15033	293.08414	84.95469	-488.36905	71.53702	124.18203	-435.86368	39.25672	-64.25982	-509.15665	33.32113	38.70113	-156.84094	613.31836	28.87637	-172.52927	456.43546	74.43992	-150.64023	287.56775	79.83974	-178.83322	78.46320	124.84068	-227.57420	35.25449	-61.43533	-164.19524	37.14734	25.93808	-313.61838	1722.45911	-3101.91260	1973.18140	1023.48340	-3140.68726	2012.47986	1021.86957			 
286	2.850	8.36702	-403.64896	1684.14160	4.29062	-289.63235	1693.97156	107.28754	-402.95825	1607.07690	106.63844	-282.72311	1615.62744	113.04996	-355.15475	1438.03589	139.96178	-345.13065	1144.27637	-32.87823	-344.66888	1374.64355	-80.89398	-344.36542	1220.00220	165.66660	-276.18570	1242.79553	19.24805	-509.19299	1397.90137	41.04466	-603.27704	1220.32031	51.99493	-625.11243	1071.99194	1.63832	-634.04999	963.40131	-68.64778	-587.07123	851.52283	-27.84098	-631.49292	845.08173	-79.31066	-620.18542	777.74200	36.40978	-197.85399	1400.79700	87.77222	-81.97938	1210.62195	72.67751	-56.42545	1086.95654	25.12465	-37.82083	969.95520	-42.89180	-90.59340	855.48578	-23.59205	-35.88497	856.78833	-58.08339	-53.82370	780.10736	-44.82114	-444.11417	937.64594	-33.83735	-226.88499	941.52979	146.64050	-402.73990	952.52722	152.49269	-260.10165	957.63416	6.22389	-516.84039	606.96338	27.01116	-507.30585	472.64182	77.48674	-530.10950	293.05887	84.94815	-488.34610	71.54431	124.15044	-435.86627	39.22820	-64.23554	-509.12955	33.31386	38.68314	-156.84183	613.31067	28.92344	-172.54033	456.43323	74.43681	-150.60995	287.57245	79.86527	-178.86052	78.43984	124.84077	-227.61786	35.28125	-61.43462	-164.17824	37.16780	25.77401	-313.61423	1722.49426	-3102.09692	1973.06470	1023.63953	-3140.72827	2012.50720	1022.00592			 
287	2.860	8.22111	-403.62131	1684.15112	4.18128	-289.63861	1693.97083	107.08186	-403.17883	1607.17810	106.54003	-282.69342	1615.68811	112.98501	-355.08246	1438.03442	139.87074	-345.09253	1144.24939	-32.93138	-344.66452	1374.66943	-80.98882	-344.35767	1220.03430	165.60310	-276.14044	1242.75476	19.21976	-509.16876	1397.92285	40.95774	-603.21545	1220.31384	51.94162	-624.99896	1071.97156	1.56879	-633.91571	963.38147	-68.65672	-586.89502	851.48932	-27.86367	-631.34253	845.03247	-79.30034	-620.04663	777.70294	36.33593	-197.81406	1400.77917	87.69662	-81.93849	1210.55151	72.58728	-56.43793	1086.90015	25.04136	-37.87751	969.88110	-42.98767	-90.68522	855.44897	-23.66022	-35.96010	856.71924	-58.14640	-53.94329	780.03168	-44.87203	-444.06897	937.63147	-33.89545	-226.86891	941.52679	146.57530	-402.70663	952.54700	152.41078	-260.01852	957.67175	6.19754	-516.83588	606.96503	26.98813	-507.28589	472.67307	77.47587	-530.11401	293.07864	84.95281	-488.34705	71.50141	124.14353	-435.83923	39.22984	-64.24438	-509.16394	33.30508	38.68301	-156.84807	613.27869	28.91763	-172.51158	456.38345	74.43886	-150.59650	287.55734	79.89006	-178.81891	78.44266	124.86077	-227.61786	35.21727	-61.41288	-164.15596	37.16618	25.58490	-313.61743	1722.53357	-3102.04663	1973.11536	1023.68451	-3140.69873	2012.51172	1021.89014			 
288	2.870	8.02642	-403.61777	1684.17432	3.96322	-289.64401	1693.98962	107.02823	-402.96072	1607.13477	106.45177	-282.65375	1615.75623	112.91215	-355.04861	1438.01953	139.79820	-345.05399	1144.26904	-33.00832	-344.61972	1374.68079	-81.05513	-344.38391	1220.03711	165.51006	-276.11423	1242.75391	19.16275	-509.15280	1397.95422	40.86950	-603.17114	1220.33191	51.88128	-624.88739	1071.98560	1.51109	-633.80878	963.37622	-68.69974	-586.78638	851.47540	-27.89211	-631.25238	845.03693	-79.27811	-619.93408	777.69586	36.22977	-197.76605	1400.79346	87.58142	-81.91301	1210.51746	72.48881	-56.48120	1086.86292	24.95390	-37.93164	969.84387	-43.07748	-90.77033	855.41418	-23.76332	-36.04460	856.67804	-58.24741	-54.03249	779.98029	-44.94814	-444.06555	937.60907	-34.00154	-226.84081	941.52637	146.47995	-402.65341	952.56415	152.35573	-260.01135	957.70050	6.13666	-516.87024	606.98560	26.98171	-507.29193	472.65775	77.47321	-530.13013	293.09341	84.99982	-488.31433	71.55420	124.19830	-435.87585	39.23309	-64.25022	-509.13257	33.34859	38.64507	-156.80664	613.29987	28.93758	-172.54469	456.38589	74.48399	-150.60963	287.55411	79.89693	-178.83891	78.46933	124.80651	-227.56311	35.26323	-61.39648	-164.15875	37.15856	25.45373	-313.63062	1722.55017	-3101.93457	1973.13135	1023.24994	-3140.57568	2012.56348	1021.94916			 
289	2.880	7.85812	-403.60980	1684.15759	3.85335	-289.63916	1694.02393	106.79236	-403.15512	1607.22791	106.30930	-282.67609	1615.78406	112.82603	-354.98523	1437.99194	139.70769	-345.04065	1144.25061	-33.08692	-344.61627	1374.71228	-81.17453	-344.37778	1220.07629	165.43808	-276.08640	1242.73608	19.11562	-509.12143	1397.98279	40.79023	-603.12988	1220.30151	51.79231	-624.75000	1071.93738	1.47165	-633.70428	963.35651	-68.72105	-586.61816	851.45697	-27.87405	-631.18506	845.03381	-79.29099	-619.79089	777.64050	36.15557	-197.74997	1400.78259	87.46532	-81.91734	1210.47095	72.37073	-56.51364	1086.79907	24.84052	-37.97463	969.80463	-43.14922	-90.87498	855.36340	-23.85327	-36.14489	856.60913	-58.33807	-54.11728	779.93732	-45.03944	-444.05688	937.61053	-34.06225	-226.86954	941.50238	146.42326	-402.64099	952.56873	152.27148	-259.99051	957.73523	6.10137	-516.82324	606.98102	26.95653	-507.27255	472.67645	77.45813	-530.12122	293.08130	84.96144	-488.34589	71.54681	124.19659	-435.87939	39.25903	-64.23729	-509.14413	33.35062	38.61697	-156.79996	613.31860	28.91757	-172.52855	456.39429	74.46519	-150.56654	287.56219	79.88599	-178.82317	78.42840	124.87601	-227.62253	35.24183	-61.41771	-164.17174	37.18460	25.00015	-313.68079	1722.42322	-3101.90845	1973.18701	1023.34924	-3140.58496	2012.53687	1021.92749			 
